<svg id="Capa_1" enable-background="new 0 0 512 512" height="512" viewBox="0 0 512 512" width="512" xmlns="http://www.w3.org/2000/svg"><g><path d="m387.956 281.694c-29.705-31.028-71.507-50.383-117.751-50.383-89.925 0-163.084 73.159-163.084 163.084v20.253h188.42c-6.115-59.925 33.84-117.977 92.415-132.954z"/><circle cx="270.205" cy="108.736" r="91.669"/><path d="m137.828 71.418c-38.773 0-70.317 31.544-70.317 70.317s31.544 70.317 70.317 70.317c17.384 0 33.308-6.347 45.593-16.838-22.106-22.183-35.791-52.762-35.791-86.479 0-12.406 1.859-24.384 5.302-35.679-4.866-1.072-9.919-1.638-15.104-1.638z"/><path d="m0 414.571h76.215v-20.176c0-60.958 28.271-115.429 72.38-151.018-78.822-6.133-148.595 58.3-148.595 137.409z"/><path d="m418.896 494.933c51.42 0 93.104-41.684 93.104-93.104s-41.684-93.104-93.104-93.104-93.104 41.684-93.104 93.104c-.001 51.42 41.683 93.104 93.104 93.104zm-31.752-147.048h48.953v107.892h-30.906v-76.986h-18.047z"/></g></svg>